<?xml version="1.0" encoding="UTF-8"?>
<svg width="124px" height="28px" viewBox="0 0 124 28" version="1.1" xmlns="http://www.w3.org/2000/svg" xmlns:xlink="http://www.w3.org/1999/xlink">
    <!-- Generator: Sketch 57.1 (83088) - https://sketch.com -->
    <title>Layer_2 2</title>
    <desc>Created with Sketch.</desc>
    <g id="Selected" stroke="none" stroke-width="1" fill="none" fill-rule="evenodd">
        <g id="Tupelo---ForDev-" transform="translate(-210.000000, -35.000000)" fill="#212E78" fill-rule="nonzero">
            <g id="Section-1" transform="translate(-0.765714, 0.000000)">
                <g id="Nav" transform="translate(210.765714, 35.000000)">
                    <g id="Layer_2-2">
                        <g id="Layer_2">
                            <g id="Group" transform="translate(33.125000, 5.875000)">
                                <polygon id="Path" points="8.341125 18.02 3.815875 18.02 3.815875 4.443875 0.075625 4.443875 0.075625 0.6115 12.0815 0.6115 12.0815 4.443875 8.34125 4.443875 8.34125 18.02"></polygon>
                                <path d="M29.633375,0.611625 L29.633375,10.400875 C29.633375,12.6405 29.541,14.857 27.809375,16.542375 C26.35475,17.97375 24.069,18.481625 22.037375,18.481625 C20.0055,18.481625 17.71975,17.97375 16.26525,16.542375 C14.533625,14.857 14.44125,12.6405 14.44125,10.400875 L14.44125,0.611625 L18.9665,0.611625 L18.9665,9.7775 C18.9665,12.04025 19.12825,14.510625 22.037375,14.510625 C24.9465,14.510625 25.108,12.04025 25.108,9.7775 L25.108,0.611625 L29.633375,0.611625 Z" id="Path"></path>
                                <path d="M32.26375,0.611625 L39.19025,0.611625 C42.9305,0.611625 45.5165,2.343125 45.5165,6.337375 C45.5165,10.447125 43.299875,12.248125 39.351875,12.248125 L36.789125,12.248125 L36.789125,18.02025 L32.26375,18.02025 L32.26375,0.611625 L32.26375,0.611625 Z M36.789,8.6 L37.550875,8.6 C39.190125,8.6 40.80625,8.6 40.80625,6.475875 C40.80625,4.2825 39.3055,4.25925 37.550875,4.25925 L36.789,4.25925 L36.789,8.6 Z" id="Shape"></path>
                                <polygon id="Path" points="52.05 4.444 52.05 7.353125 57.1525 7.353125 57.1525 11.185875 52.05 11.185875 52.05 14.1875 57.429625 14.1875 57.429625 18.020125 47.525 18.020125 47.525 0.611625 57.4295 0.611625 57.4295 4.444"></polygon>
                                <polygon id="Path" points="64.748375 14.1875 70.174 14.1875 70.174 18.020125 60.223125 18.020125 60.223125 0.611625 64.748375 0.611625"></polygon>
                                <path d="M90.029625,8.992375 C90.029625,14.626 85.98925,18.59725 80.402,18.59725 C74.81475,18.59725 70.774125,14.626 70.774125,8.992375 C70.774125,3.728375 75.3915,0.03425 80.402,0.03425 C85.412125,0.03425 90.029625,3.7285 90.029625,8.992375 Z M75.483875,9.015375 C75.483875,12.017 77.700625,14.210375 80.402,14.210375 C83.103125,14.210375 85.31975,12.017 85.31975,9.015375 C85.31975,6.6145 83.103125,4.421 80.402,4.421 C77.700625,4.421 75.483875,6.614625 75.483875,9.015375 Z" id="Shape"></path>
                            </g>
                            <path d="M13.89775,0.099375 C6.235,0.099375 0.001,6.333375 0.001,13.996 C0.001,21.65875 6.235,27.89275 13.89775,27.89275 C21.560375,27.89275 27.794375,21.65875 27.794375,13.996 C27.794375,6.333375 21.560375,0.099375 13.89775,0.099375 Z M12.98625,14.74425 C13.15075,14.860125 13.185875,14.974375 13.185,15.155125 C13.178875,16.6055 13.1815,18.055875 13.1815,19.53975 C13.12025,19.494875 13.076125,19.470375 13.04175,19.436 C12.473,18.871375 11.9085,18.30225 11.335,17.7425 C11.225625,17.63575 11.224625,17.5375 11.247125,17.40025 C11.3685,16.658375 10.907625,16.00125 10.189125,15.874875 C9.50125,15.753875 8.832,16.21025 8.679375,16.904 C8.5315,17.577 8.958,18.275 9.634625,18.433125 C9.816875,18.47575 10.020125,18.476625 10.205125,18.445375 C10.355625,18.42 10.443125,18.459125 10.540625,18.557625 C11.364125,19.389 12.19475,20.21325 13.011375,21.05125 C13.10525,21.147625 13.162625,21.311625 13.174125,21.449625 C13.1985,21.742125 13.181625,22.038125 13.181625,22.352375 C11.6155,22.181125 10.31575,21.5325 9.275875,20.396 C8.077375,19.086125 7.498625,17.533375 7.647,15.754375 C7.68975,15.24225 7.8425,14.726125 8.023,14.240875 C8.7305,12.3385 9.76725,10.605625 10.88675,8.925375 C11.751875,7.626625 12.675125,6.366625 13.5735,5.089875 C13.62725,5.0135 13.687875,4.942 13.7685,4.8385 C14.143375,5.35125 14.503875,5.838 14.857625,6.32975 C16.088125,8.0405 17.28875,9.773125 18.270875,11.6405 C18.768875,12.5875 19.228625,13.563 19.60625,14.563125 C20.21825,16.183875 19.93725,17.74375 19.092125,19.223 C18.06475,21.02125 16.528625,22.063375 14.47125,22.329875 C14.440375,22.333875 14.408875,22.333125 14.341125,22.336375 C14.341125,22.224625 14.341,22.13775 14.341125,22.051 C14.342625,21.073125 14.336125,20.09525 14.354125,19.11775 C14.357,18.959375 14.429875,18.765625 14.537625,18.652125 C15.12275,18.036375 15.72625,17.438125 16.332125,16.842625 C16.392,16.783875 16.517125,16.749875 16.601375,16.7645 C17.365,16.89675 18.047625,16.44375 18.175,15.707375 C18.3045,14.9585 17.80325,14.274125 17.045875,14.165625 C16.3085,14.06 15.652125,14.575 15.558875,15.33375 C15.552,15.38925 15.557625,15.449375 15.5535,15.5005 C15.5225,15.881875 15.48225,16.059625 15.250375,16.27425 C14.9535,16.54925 14.676875,16.846125 14.34125,17.184 C14.34125,17.03425 14.341375,16.958125 14.34125,16.882 C14.34075,16.409125 14.3535,15.93575 14.335125,15.4635 C14.3215,15.11475 14.37425,14.85525 14.68325,14.600125 C15.259,14.124875 15.209,13.217875 14.64875,12.704875 C14.08325,12.18725 13.226,12.255 12.727375,12.85675 C12.253875,13.42825 12.362875,14.305 12.98625,14.74425 Z M9.9635,17.4358776 C9.815125,17.436375 9.704625,17.365625 9.69875,17.193625 C9.69275,17.01775 9.806625,16.868 10.02775,16.89575 C10.191375,16.97225 10.206625,17.059875 10.227375,17.170875 C10.257875,17.334625 10.127375,17.43525 9.9635,17.4358776 Z M16.60775,15.478125 C16.611125,15.31225 16.705875,15.216625 16.86675,15.198 C17.01375,15.181 17.14775,15.33875 17.152625,15.480125 C17.157875,15.63325 17.133875,15.7535 16.885375,15.7615 C16.63675,15.745625 16.604625,15.625375 16.60775,15.478125 Z M13.76675,13.340625 C14.03925,13.332625 14.073,13.480125 14.063375,13.63725 C14.05425,13.78675 13.98475,13.93275 13.77475,13.949875 C13.5605,13.967375 13.494875,13.7395 13.486125,13.63725 C13.478125,13.542375 13.566375,13.348625 13.76675,13.340625 Z M14.3455,26.81875 L14.3455,23.488375 C14.430875,23.481125 14.492875,23.476375 14.554625,23.4705 C14.618375,23.4645 14.6825,23.460125 14.745875,23.45075 C17.07575,23.10725 18.834125,21.91425 20.028375,19.888125 C21.11775,18.03975 21.424875,16.097625 20.636,14.06325 C20.275375,13.133125 19.867875,12.21525 19.406,11.331375 C18.03325,8.704125 16.319375,6.29775 14.524375,3.947125 C14.279,3.62575 14.02675,3.309625 13.768125,2.97875 C13.69875,3.054125 13.653,3.097625 13.61425,3.146875 C12.316,4.797 11.07175,6.486375 9.93725,8.254125 C8.890875,9.88475 7.88525,11.53925 7.144,13.337625 C6.594875,14.67 6.316,16.032625 6.581875,17.485625 C7.107125,20.356125 9.331125,22.704 12.177,23.3395 C12.524,23.417 12.875125,23.475375 13.2295,23.5435 C13.2295,23.644 13.23075,23.731875 13.229375,23.819625 C13.21975,24.443625 13.20925,25.835125 13.20025,26.808125 C6.448,26.44475 1.066125,20.837125 1.066125,13.995875 C1.066125,6.920625 6.822375,1.1645 13.897625,1.1645 C20.972875,1.1645 26.729,6.920625 26.729,13.995875 C26.729,20.92125 21.214125,26.581875 14.3455,26.81875 Z" id="Shape"></path>
                        </g>
                    </g>
                </g>
            </g>
        </g>
    </g>
</svg>